<?xml version="1.0" encoding="UTF-8"?>
<svg width="1537px" height="896px" viewBox="0 0 1537 896" version="1.1" xmlns="http://www.w3.org/2000/svg" xmlns:xlink="http://www.w3.org/1999/xlink">
    <!-- Generator: Sketch 52.1 (67048) - http://www.bohemiancoding.com/sketch -->
    <title>V2_Background@3x</title>
    <desc>Created with Sketch.</desc>
    <defs>
        <path d="M83.6975827,0.681483474 C37.5222897,0.681483474 0.176380902,38.024409 0.176380902,84.1960133 C0.176380902,146.831911 83.6975827,239.294426 83.6975827,239.294426 C83.6975827,239.294426 167.218784,146.831911 167.218784,84.1960133 C167.218784,38.024409 129.872876,0.681483474 83.6975827,0.681483474 Z" id="path-1"></path>
    </defs>
    <g id="Redlines" stroke="none" stroke-width="1" fill="none" fill-rule="evenodd" opacity="0.7">
        <g id="V2_Background" transform="translate(1.000000, -30.000000)">
            <g id="Group-22" opacity="0.401450893" transform="translate(260.503915, 144.692191) rotate(-73.000000) translate(-260.503915, -144.692191) translate(142.003915, 39.192191)" stroke="#4285F4">
                <path d="M51.370349,200.20373 L2.84767233,116.06197 C-0.949224112,109.477896 -0.949224112,101.365965 2.84767233,94.7818456 L51.370349,10.6400853 C55.1672455,4.0559655 62.1842302,0 69.7780231,0 L166.823284,0 C174.417077,0 181.434062,4.0559655 185.230958,10.6400853 L233.753635,94.7818456 C237.550531,101.365919 237.550531,109.47785 233.753635,116.06197 L185.230958,200.20373 C181.434062,206.78785 174.417077,210.843816 166.823284,210.843816 L69.7780231,210.843816 C62.184184,210.843816 55.1672455,206.78785 51.370349,200.20373 Z" id="Shape"></path>
                <ellipse id="Oval-13-Copy-2" cx="117.878788" cy="105.889937" rx="43.8787879" ry="43.8899371"></ellipse>
            </g>
            <g id="Maps" opacity="0.401450893" transform="translate(1276.196055, 809.651899) rotate(-15.000000) translate(-1276.196055, -809.651899) translate(1192.196055, 689.651899)">
                <mask id="mask-2" fill="white">
                    <use xlink:href="#path-1"></use>
                </mask>
                <use id="Pin" stroke="#4285F4" fill-rule="nonzero" xlink:href="#path-1"></use>
                <path d="M84.1764731,54.1208404 C67.9769395,54.1208404 54.8446228,67.2521081 54.8446228,83.4503479 C54.8446228,99.6485876 67.9769395,112.779855 84.1764731,112.779855 C94.655734,112.779856 104.338971,107.189683 109.578601,98.1151018 C114.818232,89.0405205 114.818232,77.8601752 109.578601,68.7855939 C104.338971,59.7110126 94.655734,54.1208401 84.1764731,54.1208404 Z" id="Circle" stroke="#4285F4" mask="url(#mask-2)"></path>
            </g>
            <g id="Group-23" opacity="0.401450893" transform="translate(1421.755025, 346.007525) rotate(11.000000) translate(-1421.755025, -346.007525) translate(1320.255025, 272.007525)" stroke="#4285F4">
                <polygon id="Triangle" points="202.764616 0.530220188 102.301604 100.591149 1.83859155 0.530220188"></polygon>
                <polygon id="Rectangle" points="0.367456331 0.816179908 201.293481 0.816179908 201.293481 147.914297 0.367456331 147.914297"></polygon>
            </g>
            <g id="Chrome-Copy" opacity="0.401450893" transform="translate(0.000000, 616.000000)" fill-rule="nonzero" stroke="#4285F4">
                <g id="Group-24">
                    <path d="M89.9950264,121.774189 L130.663444,163.977602" id="Line-3"></path>
                    <path d="M4.4252655,115.807673 L55.2075195,78.6907049" id="Line-3"></path>
                    <path d="M143.130923,19.6344609 L117.635784,71.3560509" id="Line-3"></path>
                    <ellipse id="Outer-CIrcle" cx="88.3320312" cy="88.3544757" rx="88.3320312" ry="88.3544757"></ellipse>
                    <ellipse id="Inner-Circle" cx="87.6419373" cy="87.6642063" rx="33.8146057" ry="33.8231977"></ellipse>
                </g>
            </g>
        </g>
    </g>
</svg>